RBDS016runT35_grf
version=1
nRows=34
nColumns=19
inDegrees=no
endheader
time	ground_force_r_vx	ground_force_r_vy	ground_force_r_vz	ground_force_r_px	ground_force_r_py	ground_force_r_pz	ground_force_r_mx	ground_force_r_my	ground_force_r_mz	ground_force_l_vx	ground_force_l_vy	ground_force_l_vz	ground_force_l_px	ground_force_l_py	ground_force_l_pz	ground_force_l_mx	ground_force_l_my	ground_force_l_mz
     14.99900000	      0.00000000	      0.00000000	      0.00000000	      0.00000000	      0.00000000	      0.00000000	      0.00000000	      0.00000000	      0.00000000	   -171.76186287	   1725.72402117	     81.75706945	      2.45994255	      0.00000000	      0.98248961	      0.00000000	     12.42637991	      0.00000000
     15.00000000	      0.00000000	      0.00000000	      0.00000000	      0.00000000	      0.00000000	      0.00000000	      0.00000000	      0.00000000	      0.00000000	   -169.78356217	   1733.66797126	     82.78479341	      2.45759257	      0.00000000	      0.98226429	      0.00000000	     12.49020297	      0.00000000
     15.00100000	      0.00000000	      0.00000000	      0.00000000	      0.00000000	      0.00000000	      0.00000000	      0.00000000	      0.00000000	      0.00000000	   -167.26365529	   1740.38236480	     83.75444960	      2.45514613	      0.00000000	      0.98203233	      0.00000000	     12.54776556	      0.00000000
     15.00200000	      0.00000000	      0.00000000	      0.00000000	      0.00000000	      0.00000000	      0.00000000	      0.00000000	      0.00000000	      0.00000000	   -164.74374841	   1747.09675834	     84.72410579	      2.45269970	      0.00000000	      0.98180036	      0.00000000	     12.60532814	      0.00000000
     15.00300000	      0.00000000	      0.00000000	      0.00000000	      0.00000000	      0.00000000	      0.00000000	      0.00000000	      0.00000000	      0.00000000	   -162.22384152	   1753.81115188	     85.69376198	      2.45025327	      0.00000000	      0.98156840	      0.00000000	     12.66289072	      0.00000000
     15.00400000	      0.00000000	      0.00000000	      0.00000000	      0.00000000	      0.00000000	      0.00000000	      0.00000000	      0.00000000	      0.00000000	   -159.36475784	   1759.67668133	     86.61563293	      2.44774858	      0.00000000	      0.98133352	      0.00000000	     12.71637457	      0.00000000
     15.00500000	      0.00000000	      0.00000000	      0.00000000	      0.00000000	      0.00000000	      0.00000000	      0.00000000	      0.00000000	      0.00000000	   -156.33608577	   1765.11777873	     87.51361124	      2.44521476	      0.00000000	      0.98109719	      0.00000000	     12.76781905	      0.00000000
     15.00600000	      0.00000000	      0.00000000	      0.00000000	      0.00000000	      0.00000000	      0.00000000	      0.00000000	      0.00000000	      0.00000000	   -153.30741369	   1770.55887614	     88.41158956	      2.44268095	      0.00000000	      0.98086086	      0.00000000	     12.81926353	      0.00000000
     15.00700000	      0.00000000	      0.00000000	      0.00000000	      0.00000000	      0.00000000	      0.00000000	      0.00000000	      0.00000000	      0.00000000	   -150.12312376	   1775.55859613	     89.28078843	      2.44012146	      0.00000000	      0.98062381	      0.00000000	     12.86864918	      0.00000000
     15.00800000	      0.00000000	      0.00000000	      0.00000000	      0.00000000	      0.00000000	      0.00000000	      0.00000000	      0.00000000	      0.00000000	   -146.62759813	   1779.67556130	     90.09242843	      2.43751063	      0.00000000	      0.98038530	      0.00000000	     12.91391719	      0.00000000
     15.00900000	      0.00000000	      0.00000000	      0.00000000	      0.00000000	      0.00000000	      0.00000000	      0.00000000	      0.00000000	      0.00000000	   -143.13207249	   1783.79252647	     90.90406843	      2.43489980	      0.00000000	      0.98014679	      0.00000000	     12.95918520	      0.00000000
     15.01000000	      0.00000000	      0.00000000	      0.00000000	      0.00000000	      0.00000000	      0.00000000	      0.00000000	      0.00000000	      0.00000000	   -139.63654685	   1787.90949164	     91.71570842	      2.43228896	      0.00000000	      0.97990828	      0.00000000	     13.00445320	      0.00000000
     15.01100000	      0.00000000	      0.00000000	      0.00000000	      0.00000000	      0.00000000	      0.00000000	      0.00000000	      0.00000000	      0.00000000	   -135.72323726	   1790.64725801	     92.42557760	      2.42961241	      0.00000000	      0.97966969	      0.00000000	     13.04331573	      0.00000000
     15.01200000	      0.00000000	      0.00000000	      0.00000000	      0.00000000	      0.00000000	      0.00000000	      0.00000000	      0.00000000	      0.00000000	   -131.80992767	   1793.38502437	     93.13544678	      2.42693587	      0.00000000	      0.97943109	      0.00000000	     13.08217827	      0.00000000
     15.01300000	      0.00000000	      0.00000000	      0.00000000	      0.00000000	      0.00000000	      0.00000000	      0.00000000	      0.00000000	      0.00000000	   -127.89661808	   1796.12279074	     93.84531596	      2.42425932	      0.00000000	      0.97919250	      0.00000000	     13.12104080	      0.00000000
     15.01400000	      0.00000000	      0.00000000	      0.00000000	      0.00000000	      0.00000000	      0.00000000	      0.00000000	      0.00000000	      0.00000000	   -123.74093530	   1797.90374394	     94.47676901	      2.42154684	      0.00000000	      0.97895518	      0.00000000	     13.15538668	      0.00000000
     15.01500000	      0.00000000	      0.00000000	      0.00000000	      0.00000000	      0.00000000	      0.00000000	      0.00000000	      0.00000000	      0.00000000	   -119.46406591	   1799.20629056	     95.06901398	      2.41881640	      0.00000000	      0.97871849	      0.00000000	     13.18747424	      0.00000000
     15.01600000	      0.00000000	      0.00000000	      0.00000000	      0.00000000	      0.00000000	      0.00000000	      0.00000000	      0.00000000	      0.00000000	   -115.18719653	   1800.50883718	     95.66125896	      2.41608596	      0.00000000	      0.97848180	      0.00000000	     13.21956180	      0.00000000
     15.01700000	      0.00000000	      0.00000000	      0.00000000	      0.00000000	      0.00000000	      0.00000000	      0.00000000	      0.00000000	      0.00000000	   -110.80827160	   1801.31515441	     96.20901448	      2.41334154	      0.00000000	      0.97824638	      0.00000000	     13.24923116	      0.00000000
     15.01800000	      0.00000000	      0.00000000	      0.00000000	      0.00000000	      0.00000000	      0.00000000	      0.00000000	      0.00000000	      0.00000000	   -106.22523557	   1801.12901283	     96.66779108	      2.41056915	      0.00000000	      0.97801350	      0.00000000	     13.27406412	      0.00000000
     15.01900000	      0.00000000	      0.00000000	      0.00000000	      0.00000000	      0.00000000	      0.00000000	      0.00000000	      0.00000000	      0.00000000	   -101.64219954	   1800.94287126	     97.12656768	      2.40779676	      0.00000000	      0.97778062	      0.00000000	     13.29889707	      0.00000000
     15.02000000	      0.00000000	      0.00000000	      0.00000000	      0.00000000	      0.00000000	      0.00000000	      0.00000000	      0.00000000	      0.00000000	    -97.05916351	   1800.75672968	     97.58534428	      2.40502437	      0.00000000	      0.97754774	      0.00000000	     13.32373003	      0.00000000
     15.02100000	      0.00000000	      0.00000000	      0.00000000	      0.00000000	      0.00000000	      0.00000000	      0.00000000	      0.00000000	      0.00000000	    -92.22865756	   1799.03453693	     97.89532621	      2.40222168	      0.00000000	      0.97732046	      0.00000000	     13.34074973	      0.00000000
     15.02200000	      0.00000000	      0.00000000	      0.00000000	      0.00000000	      0.00000000	      0.00000000	      0.00000000	      0.00000000	      0.00000000	    -87.39815161	   1797.31234418	     98.20530814	      2.39941899	      0.00000000	      0.97709318	      0.00000000	     13.35776944	      0.00000000
     15.02300000	      0.00000000	      0.00000000	      0.00000000	      0.00000000	      0.00000000	      0.00000000	      0.00000000	      0.00000000	      0.00000000	    -82.56764566	   1795.59015143	     98.51529007	      2.39661630	      0.00000000	      0.97686590	      0.00000000	     13.37478914	      0.00000000
     15.02400000	      0.00000000	      0.00000000	      0.00000000	      0.00000000	      0.00000000	      0.00000000	      0.00000000	      0.00000000	      0.00000000	    -77.61105706	   1792.81869712	     98.71658785	      2.39380071	      0.00000000	      0.97664349	      0.00000000	     13.38619601	      0.00000000
     15.02500000	      0.00000000	      0.00000000	      0.00000000	      0.00000000	      0.00000000	      0.00000000	      0.00000000	      0.00000000	      0.00000000	    -72.59142713	   1789.52261203	     98.86354355	      2.39097866	      0.00000000	      0.97642352	      0.00000000	     13.39479646	      0.00000000
     15.02600000	      0.00000000	      0.00000000	      0.00000000	      0.00000000	      0.00000000	      0.00000000	      0.00000000	      0.00000000	      0.00000000	    -67.57179720	   1786.22652695	     99.01049925	      2.38815662	      0.00000000	      0.97620355	      0.00000000	     13.40339691	      0.00000000
     15.02700000	      0.00000000	      0.00000000	      0.00000000	      0.00000000	      0.00000000	      0.00000000	      0.00000000	      0.00000000	      0.00000000	    -62.50800099	   1782.39740747	     99.09894154	      2.38533142	      0.00000000	      0.97598656	      0.00000000	     13.40898370	      0.00000000
     15.02800000	      0.00000000	      0.00000000	      0.00000000	      0.00000000	      0.00000000	      0.00000000	      0.00000000	      0.00000000	      0.00000000	    -57.35587221	   1777.50221919	     99.07035700	      2.38249991	      0.00000000	      0.97577552	      0.00000000	     13.40854315	      0.00000000
     15.02900000	      0.00000000	      0.00000000	      0.00000000	      0.00000000	      0.00000000	      0.00000000	      0.00000000	      0.00000000	      0.00000000	    -52.20374343	   1772.60703091	     99.04177246	      2.37966840	      0.00000000	      0.97556448	      0.00000000	     13.40810261	      0.00000000
     15.03000000	      0.00000000	      0.00000000	      0.00000000	      0.00000000	      0.00000000	      0.00000000	      0.00000000	      0.00000000	      0.00000000	    -47.05161465	   1767.71184263	     99.01318792	      2.37683690	      0.00000000	      0.97535344	      0.00000000	     13.40766207	      0.00000000
     15.03100000	      0.00000000	      0.00000000	      0.00000000	      0.00000000	      0.00000000	      0.00000000	      0.00000000	      0.00000000	      0.00000000	    -41.82085680	   1761.20762113	     98.79890176	      2.37400446	      0.00000000	      0.97515285	      0.00000000	     13.39757342	      0.00000000
     15.03200000	      0.00000000	      0.00000000	      0.00000000	      0.00000000	      0.00000000	      0.00000000	      0.00000000	      0.00000000	      0.00000000	    -36.59009895	   1754.70339964	     98.58461560	      2.37117202	      0.00000000	      0.97495226	      0.00000000	     13.38748477	      0.00000000
